<svg id="Слой_1" data-name="Слой 1" xmlns="http://www.w3.org/2000/svg" viewBox="0 0 100 100"><defs><style>.cls-1{fill:#131418;}.cls-2{fill:#ffa726;}</style></defs><title>Photo</title><path class="cls-1" d="M59.70577,56.76462H54.919a2.055,2.055,0,0,1-1.90445-1.29714l-1.96613-4.33369a6.171,6.171,0,0,0-5.62066-3.63386H44.26446V46.47053a1.02978,1.02978,0,0,0,1.02941-1.02941V43.3823H48.3821a5.14748,5.14748,0,0,0,5.147-5.147V17.64705A5.14724,5.14724,0,0,0,48.38226,12.5H31.9117a5.14748,5.14748,0,0,0-5.147,5.147v20.5882a5.14748,5.14748,0,0,0,5.147,5.147h3.08823v2.05882a1.02978,1.02978,0,0,0,1.02941,1.02941v1.02941H34.86607a6.17046,6.17046,0,0,0-5.6205,3.63386l-1.96613,4.3337A2.05518,2.05518,0,0,1,25.375,56.76462H16.07736a1.02754,1.02754,0,0,1-.92025-.5692l-.176-.352A2.06033,2.06033,0,0,0,13.13947,54.706H11.56653A2.06063,2.06063,0,0,0,9.72489,55.8434l-.176.35315a1.03118,1.03118,0,0,1-.92138.56824H7.20587A7.20581,7.20581,0,0,0,0,63.97066V92.79413A7.20581,7.20581,0,0,0,7.20587,100h52.4999a7.20581,7.20581,0,0,0,7.20587-7.20587V63.97066A7.20584,7.20584,0,0,0,59.70577,56.76462ZM31.9117,27.94115a3.08811,3.08811,0,0,1-3.08823-3.08823V17.647a3.08811,3.08811,0,0,1,3.08823-3.08823H48.38226A3.08812,3.08812,0,0,1,51.47049,17.647v7.20587a3.08812,3.08812,0,0,1-3.08823,3.08823Zm7.20587,18.52938h2.05882v1.02941H39.11757ZM21.103,69.11754a2.5736,2.5736,0,1,1,2.57361-2.5736A2.5746,2.5746,0,0,1,21.103,69.11754ZM39.63236,93.82337A15.95585,15.95585,0,1,1,55.58813,77.86744,15.95626,15.95626,0,0,1,39.63236,93.82337ZM52.4999,77.86744a12.8677,12.8677,0,1,1-12.8677-12.8677A12.86718,12.86718,0,0,1,52.4999,77.86744Z"/><path class="cls-2" d="M99.45115,15.89643l-2.1143-.40691a3.67622,3.67622,0,0,1-2.26976-5.7839l1.32752-1.81081a.67552.67552,0,0,0-.06759-.87735L93.45974,4.15019a.67593.67593,0,0,0-.85708-.08179L90.81957,5.2756a3.67058,3.67058,0,0,1-5.69535-2.484L84.78288.57251A.67363.67363,0,0,0,84.11574,0H80.06019a.67628.67628,0,0,0-.66376.54885l-.52519,2.73142A3.68962,3.68962,0,0,1,75.2503,6.26516a3.64309,3.64309,0,0,1-2.05008-.636l-2.30288-1.56a.67678.67678,0,0,0-.85707.08179l-2.868,2.86728a.6771.6771,0,0,0-.06759.878L68.43223,9.707a3.67537,3.67537,0,0,1-2.27044,5.78322l-2.1143.40691a.67448.67448,0,0,0-.5475.66308v4.05556a.67587.67587,0,0,0,.57319.66782l2.21906.34134a3.67625,3.67625,0,0,1,2.484,5.69535l-1.2072,1.78309a.676.676,0,0,0,.08179.85708l2.86728,2.86728a.67539.67539,0,0,0,.87735.06759l1.81081-1.32752a3.637,3.637,0,0,1,2.16093-.71581,3.69,3.69,0,0,1,3.62229,2.98489l.40691,2.115a.67634.67634,0,0,0,.66376.54818h4.05556a.67535.67535,0,0,0,.66782-.57318l.24-1.56071a3.67044,3.67044,0,0,1,3.64729-3.12143,3.63108,3.63108,0,0,1,2.16026.71648l1.27344.93345a.67534.67534,0,0,0,.87735-.06759l2.86728-2.86728a.67593.67593,0,0,0,.08179-.85708l-1.2072-1.78309a3.67625,3.67625,0,0,1,2.484-5.69535l2.21907-.34134A.67466.67466,0,0,0,100,20.61574V16.56019A.67562.67562,0,0,0,99.45115,15.89643ZM87.83333,18.588A5.74537,5.74537,0,1,1,82.088,12.84259,5.7518,5.7518,0,0,1,87.83333,18.588Z"/></svg>