<svg id="Слой_1" data-name="Слой 1" xmlns="http://www.w3.org/2000/svg" viewBox="0 0 100 100"><defs><style>.cls-1{fill:#131418;}.cls-2{fill:#fff;}.cls-3{fill:#ffa726;}</style></defs><title>educ</title><rect class="cls-1" y="23.39799" width="58.57644" height="76.60201" rx="5" ry="5"/><rect class="cls-2" x="18.57644" y="32.625" width="21.42356" height="2.75" rx="1.375" ry="1.375"/><rect class="cls-2" x="9.82644" y="43.625" width="38.92356" height="2.75" rx="1.375" ry="1.375"/><rect class="cls-2" x="9.82644" y="50.375" width="38.92356" height="2.75" rx="1.375" ry="1.375"/><rect class="cls-2" x="9.82644" y="57.125" width="38.92356" height="2.75" rx="1.375" ry="1.375"/><rect class="cls-2" x="9.82644" y="63.875" width="20.79856" height="2.75" rx="1.375" ry="1.375"/><rect class="cls-2" x="35.125" y="78.20833" width="13.70833" height="2.75" rx="1.375" ry="1.375"/><path class="cls-3" d="M100,17.41241a1.4516,1.4516,0,0,0-.82627-1.303V7.122a.2767.2767,0,0,0-.00489-.51825L80.62551.06325a1.098,1.098,0,0,0-.73459,0L61.35,6.60494a.27672.27672,0,0,0-.00733.51825L79.85791,14.3298a1.11613,1.11613,0,0,0,.8006,0L97.89522,7.617v8.49124a1.4518,1.4518,0,0,0,.066,2.6487,12.07819,12.07819,0,0,0-.891,3.76587,1.46369,1.46369,0,0,0,2.92738,0,12.11291,12.11291,0,0,0-.891-3.76587A1.46165,1.46165,0,0,0,100,17.41241Z"/><path class="cls-3" d="M67.14123,10.75216c.00122,2.073.00244,4.51269.00244,4.90015,0,3.86,5.80954,7.00249,13.11515,7.19928,7.30439-.19679,13.11393-3.33562,13.11393-7.19928,0-.385,0-2.82593.00245-4.90015L80.65607,15.70365a1.10341,1.10341,0,0,1-.8006,0Z"/></svg>