<svg id="Слой_1" data-name="Слой 1" xmlns="http://www.w3.org/2000/svg" viewBox="0 0 100 100"><defs><style>.cls-1{fill:#131418;}.cls-2,.cls-3{fill:#fff;}.cls-2{stroke:#131418;stroke-miterlimit:10;stroke-width:0.97717px;}.cls-4{fill:#ffa726;}</style></defs><title>psd</title><path class="cls-1" d="M58.57644,38.70963V95.62274A4.37884,4.37884,0,0,1,54.19918,100H4.37726A4.37884,4.37884,0,0,1,0,95.62274V27.77525A4.37884,4.37884,0,0,1,4.37726,23.398H43.2648Z" transform="translate(0 0)"/><path class="cls-2" d="M43.7705,34.3168V24.542L57.45833,38.22985H47.68354A3.91447,3.91447,0,0,1,43.7705,34.3168Z" transform="translate(0 0)"/><path class="cls-3" d="M19.233,63.39433v6.93778H15.98255V51.6266h7.15579A7.23669,7.23669,0,0,1,28.11661,53.26a5.49255,5.49255,0,0,1,1.84409,4.32169A5.30764,5.30764,0,0,1,28.15508,61.864a7.58176,7.58176,0,0,1-5.05522,1.53033Zm0-2.62037h3.90533a3.84853,3.84853,0,0,0,2.64687-.81561,3.00127,3.00127,0,0,0,.91221-2.35791,3.23627,3.23627,0,0,0-.925-2.4216,3.5657,3.5657,0,0,0-2.54428-.93145H19.233Z" transform="translate(0 0)"/><path class="cls-3" d="M40.29,66.555a1.41625,1.41625,0,0,0-.68737-1.27214,7.31555,7.31555,0,0,0-2.28011-.77029,11.71838,11.71838,0,0,1-2.6597-.84809,3.55,3.55,0,0,1-2.33824-3.2761,3.69954,3.69954,0,0,1,1.5158-3.00594,5.99171,5.99171,0,0,1,3.854-1.208A6.23369,6.23369,0,0,1,41.722,57.40809a3.913,3.913,0,0,1,1.53546,3.1983H40.13612a1.92352,1.92352,0,0,0-.66856-1.49613,2.55968,2.55968,0,0,0-1.77313-.5976,2.76538,2.76538,0,0,0-1.67652.47534,1.49944,1.49944,0,0,0-.64889,1.27214,1.26461,1.26461,0,0,0,.60444,1.1174,8.27456,8.27456,0,0,0,2.44083.80278,11.59421,11.59421,0,0,1,2.88369.96351,4.08817,4.08817,0,0,1,1.55512,1.3431,3.4274,3.4274,0,0,1,.507,1.90137,3.62318,3.62318,0,0,1-1.55427,3.03843,6.632,6.632,0,0,1-4.0729,1.16271,7.18588,7.18588,0,0,1-3.04442-.61726,5.01238,5.01238,0,0,1-2.08091-1.69533,4.00936,4.00936,0,0,1-.7455-2.32542h3.03159a2.20074,2.20074,0,0,0,.83527,1.70217,3.24538,3.24538,0,0,0,2.04329.5976,3.15807,3.15807,0,0,0,1.87572-.46936A1.45223,1.45223,0,0,0,40.29,66.555Z" transform="translate(0 0)"/><polygon class="cls-4" points="69.216 24.873 67.247 32.755 75.129 30.784 94.835 11.078 88.921 5.165 69.216 24.873"/><path class="cls-4" d="M98.77627,1.22423a4.18347,4.18347,0,0,0-5.91415,0L90.89163,3.19471l5.91415,5.91285,1.97048-1.97048A4.18308,4.18308,0,0,0,98.77627,1.22423Z" transform="translate(0 0)"/></svg>