<svg width="40" height="40" viewBox="0 0 40 40" fill="none" xmlns="http://www.w3.org/2000/svg">
<path d="M34.1397 5.86035C30.3658 2.07814 25.345 0 20 0C14.655 0 9.63425 2.07814 5.86035 5.86035C2.07814 9.63425 0 14.655 0 20C0 25.345 2.07814 30.3658 5.86035 34.1397C9.63425 37.9135 14.6633 40 20 40C25.3367 40 30.3658 37.9219 34.1397 34.1397C37.9135 30.3658 40 25.3367 40 20C40 14.6633 37.9219 9.63425 34.1397 5.86035ZM34.2228 9.38487L29.3101 17.8055L20.3325 2.24439C26.01 2.35245 31.0474 5.13716 34.2228 9.38487ZM28.005 20.0416L23.99 26.916H16.0432L12.0116 19.9917L16.0017 13.084H23.99L28.005 20.0416ZM17.8138 2.37739L22.6933 10.8396H4.79634C7.5478 6.28429 12.2943 3.05902 17.8138 2.37739ZM2.24439 20C2.24439 17.5478 2.74314 15.212 3.64921 13.084H13.4165L4.46384 28.5786C3.05071 26.0349 2.24439 23.1089 2.24439 20ZM5.83541 30.6899L10.7232 22.2278L19.7672 37.7473C14.0815 37.6808 9.03574 34.921 5.83541 30.6899ZM22.2776 37.606L17.3566 29.1521H24.6384C24.6384 29.1521 24.6384 29.1521 24.6467 29.1521H35.212C32.4688 33.6908 27.7639 36.9077 22.2776 37.606ZM26.5919 26.916L35.586 11.5046C36.9659 14.0316 37.7556 16.9244 37.7556 20C37.7556 22.4522 37.2569 24.788 36.3508 26.916H26.5919Z" fill="white"/>
</svg>
