<svg width="30" height="30" viewBox="0 0 30 30" fill="none" xmlns="http://www.w3.org/2000/svg">
<path d="M25.6047 4.39526C22.7743 1.5586 19.0087 0 15 0C10.9913 0 7.22569 1.5586 4.39526 4.39526C1.5586 7.22569 0 10.9913 0 15C0 19.0087 1.5586 22.7743 4.39526 25.6047C7.22569 28.4352 10.9975 30 15 30C19.0025 30 22.7743 28.4414 25.6047 25.6047C28.4352 22.7743 30 19.0025 30 15C30 10.9975 28.4414 7.22569 25.6047 4.39526ZM25.6671 7.03865L21.9825 13.3541L15.2494 1.68329C19.5075 1.76434 23.2855 3.85287 25.6671 7.03865ZM21.0037 15.0312L17.9925 20.187H12.0324L9.00873 14.9938L12.0012 9.81297H17.9925L21.0037 15.0312ZM13.3603 1.78304L17.0199 8.12967H3.59726C5.66085 4.71322 9.2207 2.29426 13.3603 1.78304ZM1.68329 15C1.68329 13.1608 2.05736 11.409 2.73691 9.81297H10.0623L3.34788 21.4339C2.28803 19.5262 1.68329 17.3317 1.68329 15ZM4.37656 23.0175L8.04239 16.6708L14.8254 28.3105C10.5611 28.2606 6.77681 26.1908 4.37656 23.0175ZM16.7082 28.2045L13.0175 21.8641H18.4788C18.4788 21.8641 18.4788 21.8641 18.485 21.8641H26.409C24.3516 25.2681 20.8229 27.6808 16.7082 28.2045ZM19.9439 20.187L26.6895 8.62843C27.7244 10.5237 28.3167 12.6933 28.3167 15C28.3167 16.8392 27.9426 18.591 27.2631 20.187H19.9439Z" fill="#131418"/>
</svg>
